<mxfile host="app.diagrams.net" modified="2024-04-28T19:27:15.573+02:00" version="24.0.7" type="device">
	<diagram name="Page-1" id="p1714325235573">
		<mxGraphModel dx="954" dy="617" grid="1" gridSize="10" guides="1" tooltips="1" connect="1" arrows="1" fold="1" page="1" pageScale="1" pageWidth="1103" pageHeight="618" math="0" shadow="0" id="p1714325235573">
			<root viewBox="0 0 1103 618" width="1103" height="618">
				<mxCell id="0"/>
				<mxCell id="1" parent="0"/>
				<mxCell id="2" style="rounded=0;whiteSpace=wrap;html=1;strokeWidth=2;strokeWidth=2;strokeColor=#333333;fillColor=#e2e2e2;verticalAlign=top;" vertex="1" parent="1" value="keycloak — 8080:8080">
					<mxGeometry x="480" y="30" width="290" height="240" as="geometry"/>
				</mxCell>
				<mxCell id="3" style="rounded=0;whiteSpace=wrap;html=1;strokeWidth=2;strokeWidth=2;strokeColor=#333333;fillColor=#e2e2e2;verticalAlign=top;" vertex="1" parent="1" value="selenium — 4444 — network=host">
					<mxGeometry x="834" y="30" width="241" height="240" as="geometry"/>
				</mxCell>
				<mxCell id="4" style="rounded=0;whiteSpace=wrap;html=1;strokeWidth=2;strokeWidth=2;strokeColor=#333333;fillColor=#e2e2e2;verticalAlign=top;" vertex="1" parent="1" value="frontend — 8082 — network=host">
					<mxGeometry x="834" y="436" width="241" height="172" as="geometry"/>
				</mxCell>
				<mxCell id="5" style="rounded=0;whiteSpace=wrap;html=1;strokeWidth=2;strokeWidth=2;strokeColor=#333333;fillColor=#e2e2e2;verticalAlign=top;" vertex="1" parent="1" value="mongo — 27017:27017">
					<mxGeometry x="131" y="436" width="241" height="172" as="geometry"/>
				</mxCell>
				<mxCell id="6" style="rounded=0;whiteSpace=wrap;html=1;strokeWidth=2;strokeWidth=2;strokeColor=#333333;fillColor=#e2e2e2;verticalAlign=top;" vertex="1" parent="1" value="api — 8081 — network=host">
					<mxGeometry x="479" y="436" width="241" height="172" as="geometry"/>
				</mxCell>
				<mxCell id="7" style="rounded=0;whiteSpace=wrap;html=1;strokeWidth=2;strokeWidth=2;strokeColor=#333333;fillColor=#e2e2e2;verticalAlign=top;" vertex="1" parent="1" value="keycloak-event-gateway">
					<mxGeometry x="130" y="27" width="290" height="243" as="geometry"/>
				</mxCell>
				<mxCell id="8" style="rounded=0;whiteSpace=wrap;html=1;strokeWidth=0;strokeWidth=0;strokeColor=#333333;fillColor=#cccccc;verticalAlign=top;" vertex="1" parent="1" value="sample code (in services.js)">
					<mxGeometry x="505" y="570" width="189" height="30" as="geometry"/>
				</mxCell>
				<mxCell id="9" style="rounded=0;whiteSpace=wrap;html=1;strokeWidth=0;strokeWidth=0;strokeColor=#333333;fillColor=#cccccc;verticalAlign=top;" vertex="1" parent="1" value="feathers-keycloak-listener">
					<mxGeometry x="505" y="530" width="189" height="30" as="geometry"/>
				</mxCell>
				<mxCell id="10" style="rounded=0;whiteSpace=wrap;html=1;strokeWidth=0;strokeWidth=0;strokeColor=#333333;fillColor=#cccccc;verticalAlign=top;align=left;" vertex="1" parent="1" value="/opt/keycloak/providers">
					<mxGeometry x="509" y="151" width="240" height="86" as="geometry"/>
				</mxCell>
				<mxCell id="11" style="rounded=0;whiteSpace=wrap;html=1;strokeWidth=0;strokeWidth=0;strokeColor=#333333;fillColor=#cccccc;verticalAlign=top;align=left;" vertex="1" parent="1" value="volume: artifacts">
					<mxGeometry x="330" y="290" width="240" height="90" as="geometry"/>
				</mxCell>
				<mxCell id="12" style="rounded=0;whiteSpace=wrap;html=1;strokeWidth=0;strokeWidth=0;strokeColor=#333333;fillColor=#cccccc;verticalAlign=top;align=left;" vertex="1" parent="1" value="/kalisio/artifacts">
					<mxGeometry x="159" y="150" width="240" height="90" as="geometry"/>
				</mxCell>
				<mxCell id="13" style="rounded=1;whiteSpace=wrap;html=1;strokeWidth=2;strokeColor=#333333;fillColor=#9fc5e8;" vertex="1" parent="1" value="&lt;b&gt;Keycloak 22.0.5&lt;/b&gt;">
					<mxGeometry x="555" y="75" width="140" height="50" as="geometry"/>
				</mxCell>
				<mxCell id="14" style="rounded=1;whiteSpace=wrap;html=1;strokeWidth=2;strokeColor=#333333;fillColor=#cfe2f3;" vertex="1" parent="1" value="&lt;b&gt;keycloak-event-gateway.jar&lt;/b&gt;">
					<mxGeometry x="180" y="189" width="198" height="30" as="geometry"/>
				</mxCell>
				<mxCell id="15" style="rounded=1;whiteSpace=wrap;html=1;strokeWidth=2;strokeColor=#333333;fillColor=#cfe2f3;" vertex="1" parent="1" value="&lt;b&gt;keycloak-event-gateway.jar&lt;/b&gt;">
					<mxGeometry x="351" y="330" width="198" height="30" as="geometry"/>
				</mxCell>
				<mxCell id="16" style="rounded=1;whiteSpace=wrap;html=1;strokeWidth=2;strokeColor=#333333;fillColor=#cfe2f3;" vertex="1" parent="1" value="&lt;b&gt;keycloak-event-gateway.jar&lt;/b&gt;">
					<mxGeometry x="531" y="190" width="198" height="30" as="geometry"/>
				</mxCell>
				<mxCell id="17" style="rounded=1;whiteSpace=wrap;html=1;strokeWidth=2;strokeColor=#333333;fillColor=#cfe2f3;" vertex="1" parent="1" value="&lt;b&gt;kApp&lt;/b&gt;&lt;br/&gt;&lt;b&gt;frontend&lt;/b&gt;">
					<mxGeometry x="889" y="472" width="140" height="50" as="geometry"/>
				</mxCell>
				<mxCell id="18" style="rounded=1;whiteSpace=wrap;html=1;strokeWidth=2;strokeColor=#333333;fillColor=#b4a7d6;" vertex="1" parent="1" value="&lt;b&gt;mongo:4.2&lt;/b&gt;">
					<mxGeometry x="186" y="472" width="140" height="50" as="geometry"/>
				</mxCell>
				<mxCell id="19" style="rounded=1;whiteSpace=wrap;html=1;strokeWidth=2;strokeColor=#333333;fillColor=#d9d2e9;" vertex="1" parent="1" value="&lt;b&gt;kApp&lt;/b&gt;&lt;br/&gt;&lt;b&gt;backend&lt;/b&gt;">
					<mxGeometry x="534" y="472" width="140" height="50" as="geometry"/>
				</mxCell>
				<mxCell id="20" style="rounded=1;whiteSpace=wrap;html=1;strokeWidth=2;strokeColor=#333333;fillColor=#ffe599;" vertex="1" parent="1" value="&lt;b&gt;Selenium&lt;/b&gt;&lt;br/&gt;&lt;b&gt;Standalone Firefox&lt;/b&gt;">
					<mxGeometry x="889" y="76" width="140" height="50" as="geometry"/>
				</mxCell>
				<mxCell id="21" parent="1" value="" style="startArrow=none;html=1;rounded=1;curved=0;exitDx=0;exitDy=0;entryDx=0;entryDy=0;startFill=0;strokeWidth=2;strokeColor=#000000;endArrow=classic;exitX=0.5;exitY=1.0;entryX=0.5428571428571428;entryY=0.0;" edge="1" source="20" target="17">
					<mxGeometry width="50" height="50" relative="1" as="geometry">
						<mxPoint x="959" y="126" as="sourcePoint"/>
						<mxPoint x="965" y="472" as="targetPoint"/>
						<Array as="points"/>
					</mxGeometry>
				</mxCell>
				<mxCell id="22" parent="1" value="" style="startArrow=none;html=1;rounded=1;curved=0;exitDx=0;exitDy=0;entryDx=0;entryDy=0;startFill=0;strokeWidth=2;strokeColor=#000000;endArrow=classic;exitX=0.0;exitY=0.5;entryX=1.0;entryY=0.5;" edge="1" source="19" target="18">
					<mxGeometry width="50" height="50" relative="1" as="geometry">
						<mxPoint x="534" y="497" as="sourcePoint"/>
						<mxPoint x="326" y="497" as="targetPoint"/>
					</mxGeometry>
				</mxCell>
				<mxCell id="23" parent="1" value="" style="startArrow=none;html=1;rounded=1;curved=0;exitDx=0;exitDy=0;entryDx=0;entryDy=0;startFill=0;strokeWidth=2;strokeColor=#000000;endArrow=classic;exitX=0.0;exitY=0.5;entryX=1.0;entryY=0.5;" edge="1" source="17" target="19">
					<mxGeometry width="50" height="50" relative="1" as="geometry">
						<mxPoint x="889" y="497" as="sourcePoint"/>
						<mxPoint x="674" y="497" as="targetPoint"/>
					</mxGeometry>
				</mxCell>
				<mxCell id="24" parent="1" value="" style="startArrow=none;html=1;rounded=1;curved=0;exitDx=0;exitDy=0;entryDx=0;entryDy=0;startFill=0;strokeWidth=2;strokeColor=#000000;endArrow=classic;exitX=0.0;exitY=0.5;entryX=1.0;entryY=0.5;" edge="1" source="20" target="13">
					<mxGeometry width="50" height="50" relative="1" as="geometry">
						<mxPoint x="889" y="101" as="sourcePoint"/>
						<mxPoint x="695" y="100" as="targetPoint"/>
					</mxGeometry>
				</mxCell>
				<mxCell id="25" parent="1" value="" style="startArrow=none;html=1;rounded=1;curved=0;exitDx=0;exitDy=0;entryDx=0;entryDy=0;startFill=0;strokeWidth=2;strokeColor=#000000;endArrow=classic;exitX=0.7071067811865476;exitY=1.0;entryX=0.14285714285714285;entryY=0.0;" edge="1" source="16" target="17">
					<mxGeometry width="50" height="50" relative="1" as="geometry">
						<mxPoint x="671" y="220" as="sourcePoint"/>
						<mxPoint x="909" y="472" as="targetPoint"/>
						<Array as="points">
							<mxPoint x="671.5071426749364" y="220.0"/>
						</Array>
					</mxGeometry>
				</mxCell>
				<mxCell id="26" parent="1" value="" style="startArrow=none;html=1;rounded=1;curved=0;exitDx=0;exitDy=0;entryDx=0;entryDy=0;startFill=0;strokeWidth=2;strokeColor=#000000;endArrow=classic;exitX=0.29289321881345254;exitY=0.9999999999999998;entryX=0.7071067811865476;entryY=0.0;" edge="1" source="10" target="11">
					<mxGeometry width="50" height="50" relative="1" as="geometry">
						<mxPoint x="579" y="237" as="sourcePoint"/>
						<mxPoint x="500" y="290" as="targetPoint"/>
						<Array as="points">
							<mxPoint x="579.7943725152286" y="237.0"/>
						</Array>
					</mxGeometry>
				</mxCell>
				<mxCell id="27" parent="1" value="" style="startArrow=none;html=1;rounded=1;curved=0;exitDx=0;exitDy=0;entryDx=0;entryDy=0;startFill=0;strokeWidth=2;strokeColor=#000000;endArrow=classic;exitX=0.7071067811865476;exitY=1.0;entryX=0.2928932188134524;entryY=0.0;" edge="1" source="12" target="11">
					<mxGeometry width="50" height="50" relative="1" as="geometry">
						<mxPoint x="329" y="240" as="sourcePoint"/>
						<mxPoint x="400" y="290" as="targetPoint"/>
						<Array as="points">
							<mxPoint x="329.2056274847714" y="240.0"/>
						</Array>
					</mxGeometry>
				</mxCell>
				<mxCell id="28" value="http://localhost:8082" style="text;html=1;align=center;verticalAlign=middle;whiteSpace=wrap;rounded=0;" vertex="1" parent="1">
					<mxGeometry x="944" y="410" width="150" height="14" as="geometry"/>
				</mxCell>
				<mxCell id="29" value="mongo://localhost:27017" style="text;html=1;align=center;verticalAlign=middle;whiteSpace=wrap;rounded=0;" vertex="1" parent="1">
					<mxGeometry x="333" y="477" width="150" height="14" as="geometry"/>
				</mxCell>
				<mxCell id="30" value="http://localhost:8080" style="text;html=1;align=center;verticalAlign=middle;whiteSpace=wrap;rounded=0;" vertex="1" parent="1">
					<mxGeometry x="689" y="76" width="150" height="14" as="geometry"/>
				</mxCell>
				<mxCell id="31" value="http://localhost:8081" style="text;html=1;align=center;verticalAlign=middle;whiteSpace=wrap;rounded=0;" vertex="1" parent="1">
					<mxGeometry x="669" y="476" width="150" height="14" as="geometry"/>
				</mxCell>
				<mxCell id="32" value="POST http://localhost:8082/api/keycloak-events" style="text;html=1;align=center;verticalAlign=middle;whiteSpace=wrap;rounded=0;" vertex="1" parent="1">
					<mxGeometry x="645" y="360" width="269" height="28" as="geometry"/>
				</mxCell>
			</root>
		</mxGraphModel>
	</diagram>
</mxfile>